<mxfile host="Electron" agent="Mozilla/5.0 (Windows NT 10.0; Win64; x64) AppleWebKit/537.36 (KHTML, like Gecko) draw.io/24.7.17 Chrome/128.0.6613.36 Electron/32.0.1 Safari/537.36" version="24.7.17">
  <diagram id="C5RBs43oDa-KdzZeNtuy" name="Page-1">
    <mxGraphModel dx="2074" dy="727" grid="1" gridSize="10" guides="1" tooltips="1" connect="1" arrows="1" fold="1" page="1" pageScale="1" pageWidth="827" pageHeight="1169" math="0" shadow="0">
      <root>
        <mxCell id="WIyWlLk6GJQsqaUBKTNV-0" />
        <mxCell id="WIyWlLk6GJQsqaUBKTNV-1" parent="WIyWlLk6GJQsqaUBKTNV-0" />
        <mxCell id="616xpa7f227RNor3UVf1-3" value="" style="endArrow=none;html=1;rounded=0;exitX=1;exitY=0.25;exitDx=0;exitDy=0;entryX=0;entryY=0.5;entryDx=0;entryDy=0;" parent="WIyWlLk6GJQsqaUBKTNV-1" source="616xpa7f227RNor3UVf1-5" target="616xpa7f227RNor3UVf1-21" edge="1">
          <mxGeometry width="50" height="50" relative="1" as="geometry">
            <mxPoint x="270" y="740" as="sourcePoint" />
            <mxPoint x="310" y="710" as="targetPoint" />
            <Array as="points">
              <mxPoint x="430" y="695" />
              <mxPoint x="430" y="610" />
            </Array>
          </mxGeometry>
        </mxCell>
        <mxCell id="616xpa7f227RNor3UVf1-5" value="Empleado" style="rounded=0;whiteSpace=wrap;html=1;strokeWidth=3;" parent="WIyWlLk6GJQsqaUBKTNV-1" vertex="1">
          <mxGeometry x="130" y="680" width="120" height="60" as="geometry" />
        </mxCell>
        <mxCell id="616xpa7f227RNor3UVf1-138" style="rounded=0;orthogonalLoop=1;jettySize=auto;html=1;endArrow=none;startFill=0;" parent="WIyWlLk6GJQsqaUBKTNV-1" source="616xpa7f227RNor3UVf1-8" target="616xpa7f227RNor3UVf1-73" edge="1">
          <mxGeometry relative="1" as="geometry" />
        </mxCell>
        <mxCell id="616xpa7f227RNor3UVf1-8" value="Departamento" style="rounded=0;whiteSpace=wrap;html=1;" parent="WIyWlLk6GJQsqaUBKTNV-1" vertex="1">
          <mxGeometry x="130" y="350" width="120" height="60" as="geometry" />
        </mxCell>
        <mxCell id="616xpa7f227RNor3UVf1-9" value="Proyecto" style="rounded=0;whiteSpace=wrap;html=1;strokeWidth=3;" parent="WIyWlLk6GJQsqaUBKTNV-1" vertex="1">
          <mxGeometry x="720" y="680" width="120" height="60" as="geometry" />
        </mxCell>
        <mxCell id="616xpa7f227RNor3UVf1-10" value="Cliente" style="rounded=0;whiteSpace=wrap;html=1;" parent="WIyWlLk6GJQsqaUBKTNV-1" vertex="1">
          <mxGeometry x="1110" y="680" width="120" height="60" as="geometry" />
        </mxCell>
        <mxCell id="616xpa7f227RNor3UVf1-11" value="Tecnologia" style="rounded=0;whiteSpace=wrap;html=1;" parent="WIyWlLk6GJQsqaUBKTNV-1" vertex="1">
          <mxGeometry x="720" y="945" width="120" height="60" as="geometry" />
        </mxCell>
        <mxCell id="616xpa7f227RNor3UVf1-12" value="Capacitacion" style="rounded=0;whiteSpace=wrap;html=1;strokeWidth=3;" parent="WIyWlLk6GJQsqaUBKTNV-1" vertex="1">
          <mxGeometry x="130" y="1030" width="120" height="60" as="geometry" />
        </mxCell>
        <mxCell id="616xpa7f227RNor3UVf1-13" value="Evaluacion" style="rounded=0;whiteSpace=wrap;html=1;strokeWidth=3;" parent="WIyWlLk6GJQsqaUBKTNV-1" vertex="1">
          <mxGeometry x="-300" y="680" width="120" height="60" as="geometry" />
        </mxCell>
        <mxCell id="616xpa7f227RNor3UVf1-15" value="pertenece" style="rhombus;whiteSpace=wrap;html=1;shadow=0;fontFamily=Helvetica;fontSize=12;align=center;strokeWidth=1;spacing=6;spacingTop=-4;" parent="WIyWlLk6GJQsqaUBKTNV-1" vertex="1">
          <mxGeometry x="140" y="475" width="100" height="80" as="geometry" />
        </mxCell>
        <mxCell id="616xpa7f227RNor3UVf1-16" value="" style="endArrow=none;html=1;rounded=0;entryX=0.5;entryY=1;entryDx=0;entryDy=0;exitX=0.5;exitY=0;exitDx=0;exitDy=0;" parent="WIyWlLk6GJQsqaUBKTNV-1" source="616xpa7f227RNor3UVf1-15" target="616xpa7f227RNor3UVf1-8" edge="1">
          <mxGeometry width="50" height="50" relative="1" as="geometry">
            <mxPoint x="220" y="440" as="sourcePoint" />
            <mxPoint x="270" y="390" as="targetPoint" />
          </mxGeometry>
        </mxCell>
        <mxCell id="616xpa7f227RNor3UVf1-17" value="" style="endArrow=none;html=1;rounded=0;entryX=0.5;entryY=1;entryDx=0;entryDy=0;exitX=0.5;exitY=0;exitDx=0;exitDy=0;strokeWidth=3;" parent="WIyWlLk6GJQsqaUBKTNV-1" source="616xpa7f227RNor3UVf1-5" target="616xpa7f227RNor3UVf1-15" edge="1">
          <mxGeometry width="50" height="50" relative="1" as="geometry">
            <mxPoint x="210.71" y="615" as="sourcePoint" />
            <mxPoint x="210" y="555" as="targetPoint" />
          </mxGeometry>
        </mxCell>
        <mxCell id="616xpa7f227RNor3UVf1-18" value="" style="endArrow=none;html=1;rounded=0;exitX=1;exitY=0.5;exitDx=0;exitDy=0;entryX=0;entryY=0.5;entryDx=0;entryDy=0;strokeWidth=3;" parent="WIyWlLk6GJQsqaUBKTNV-1" source="616xpa7f227RNor3UVf1-9" target="616xpa7f227RNor3UVf1-23" edge="1">
          <mxGeometry width="50" height="50" relative="1" as="geometry">
            <mxPoint x="730" y="660" as="sourcePoint" />
            <mxPoint x="780" y="610" as="targetPoint" />
          </mxGeometry>
        </mxCell>
        <mxCell id="616xpa7f227RNor3UVf1-20" value="" style="endArrow=none;html=1;rounded=0;entryX=0;entryY=0.5;entryDx=0;entryDy=0;exitX=1;exitY=0.5;exitDx=0;exitDy=0;strokeWidth=3;" parent="WIyWlLk6GJQsqaUBKTNV-1" source="616xpa7f227RNor3UVf1-33" target="616xpa7f227RNor3UVf1-5" edge="1">
          <mxGeometry width="50" height="50" relative="1" as="geometry">
            <mxPoint x="-10" y="670" as="sourcePoint" />
            <mxPoint x="20" y="630" as="targetPoint" />
          </mxGeometry>
        </mxCell>
        <mxCell id="616xpa7f227RNor3UVf1-21" value="participa" style="rhombus;whiteSpace=wrap;html=1;shadow=0;fontFamily=Helvetica;fontSize=12;align=center;strokeWidth=1;spacing=6;spacingTop=-4;" parent="WIyWlLk6GJQsqaUBKTNV-1" vertex="1">
          <mxGeometry x="470" y="570" width="100" height="80" as="geometry" />
        </mxCell>
        <mxCell id="616xpa7f227RNor3UVf1-22" value="" style="endArrow=none;html=1;rounded=0;exitX=1;exitY=0.5;exitDx=0;exitDy=0;entryX=0;entryY=0.25;entryDx=0;entryDy=0;strokeWidth=3;" parent="WIyWlLk6GJQsqaUBKTNV-1" source="616xpa7f227RNor3UVf1-21" target="616xpa7f227RNor3UVf1-9" edge="1">
          <mxGeometry width="50" height="50" relative="1" as="geometry">
            <mxPoint x="470" y="620" as="sourcePoint" />
            <mxPoint x="520" y="570" as="targetPoint" />
            <Array as="points">
              <mxPoint x="620" y="610" />
              <mxPoint x="620" y="695" />
            </Array>
          </mxGeometry>
        </mxCell>
        <mxCell id="616xpa7f227RNor3UVf1-23" value="solicita" style="rhombus;whiteSpace=wrap;html=1;shadow=0;fontFamily=Helvetica;fontSize=12;align=center;strokeWidth=3;spacing=6;spacingTop=-4;" parent="WIyWlLk6GJQsqaUBKTNV-1" vertex="1">
          <mxGeometry x="930" y="670" width="100" height="80" as="geometry" />
        </mxCell>
        <mxCell id="616xpa7f227RNor3UVf1-26" value="" style="endArrow=none;html=1;rounded=0;exitX=1;exitY=0.5;exitDx=0;exitDy=0;entryX=0;entryY=0.5;entryDx=0;entryDy=0;strokeWidth=3;" parent="WIyWlLk6GJQsqaUBKTNV-1" source="616xpa7f227RNor3UVf1-23" target="616xpa7f227RNor3UVf1-10" edge="1">
          <mxGeometry width="50" height="50" relative="1" as="geometry">
            <mxPoint x="710" y="530" as="sourcePoint" />
            <mxPoint x="760" y="480" as="targetPoint" />
          </mxGeometry>
        </mxCell>
        <mxCell id="616xpa7f227RNor3UVf1-27" value="" style="endArrow=none;html=1;rounded=0;entryX=0.5;entryY=1;entryDx=0;entryDy=0;exitX=0.5;exitY=0;exitDx=0;exitDy=0;strokeWidth=3;" parent="WIyWlLk6GJQsqaUBKTNV-1" source="616xpa7f227RNor3UVf1-28" target="616xpa7f227RNor3UVf1-9" edge="1">
          <mxGeometry width="50" height="50" relative="1" as="geometry">
            <mxPoint x="480" y="840" as="sourcePoint" />
            <mxPoint x="530" y="790" as="targetPoint" />
          </mxGeometry>
        </mxCell>
        <mxCell id="616xpa7f227RNor3UVf1-28" value="utiliza" style="rhombus;whiteSpace=wrap;html=1;shadow=0;fontFamily=Helvetica;fontSize=12;align=center;strokeWidth=1;spacing=6;spacingTop=-4;" parent="WIyWlLk6GJQsqaUBKTNV-1" vertex="1">
          <mxGeometry x="730" y="810" width="100" height="80" as="geometry" />
        </mxCell>
        <mxCell id="616xpa7f227RNor3UVf1-29" value="" style="endArrow=none;html=1;rounded=0;entryX=0.5;entryY=1;entryDx=0;entryDy=0;exitX=0.5;exitY=0;exitDx=0;exitDy=0;" parent="WIyWlLk6GJQsqaUBKTNV-1" source="616xpa7f227RNor3UVf1-11" target="616xpa7f227RNor3UVf1-28" edge="1">
          <mxGeometry width="50" height="50" relative="1" as="geometry">
            <mxPoint x="450" y="735" as="sourcePoint" />
            <mxPoint x="500" y="685" as="targetPoint" />
          </mxGeometry>
        </mxCell>
        <mxCell id="616xpa7f227RNor3UVf1-30" value="recibe" style="rhombus;whiteSpace=wrap;html=1;shadow=0;fontFamily=Helvetica;fontSize=12;align=center;strokeWidth=1;spacing=6;spacingTop=-4;" parent="WIyWlLk6GJQsqaUBKTNV-1" vertex="1">
          <mxGeometry x="140" y="880" width="100" height="80" as="geometry" />
        </mxCell>
        <mxCell id="616xpa7f227RNor3UVf1-31" value="" style="endArrow=none;html=1;rounded=0;entryX=0.5;entryY=1;entryDx=0;entryDy=0;exitX=0.5;exitY=0;exitDx=0;exitDy=0;" parent="WIyWlLk6GJQsqaUBKTNV-1" source="616xpa7f227RNor3UVf1-30" target="616xpa7f227RNor3UVf1-5" edge="1">
          <mxGeometry width="50" height="50" relative="1" as="geometry">
            <mxPoint x="80" y="835" as="sourcePoint" />
            <mxPoint x="130" y="785" as="targetPoint" />
          </mxGeometry>
        </mxCell>
        <mxCell id="616xpa7f227RNor3UVf1-32" value="" style="endArrow=none;html=1;rounded=0;entryX=0.5;entryY=1;entryDx=0;entryDy=0;exitX=0.5;exitY=0;exitDx=0;exitDy=0;strokeWidth=3;" parent="WIyWlLk6GJQsqaUBKTNV-1" source="616xpa7f227RNor3UVf1-12" target="616xpa7f227RNor3UVf1-30" edge="1">
          <mxGeometry width="50" height="50" relative="1" as="geometry">
            <mxPoint x="45" y="1015" as="sourcePoint" />
            <mxPoint x="190" y="1070" as="targetPoint" />
          </mxGeometry>
        </mxCell>
        <mxCell id="616xpa7f227RNor3UVf1-33" value="realiza" style="rhombus;whiteSpace=wrap;html=1;shadow=0;fontFamily=Helvetica;fontSize=12;align=center;strokeWidth=3;spacing=6;spacingTop=-4;" parent="WIyWlLk6GJQsqaUBKTNV-1" vertex="1">
          <mxGeometry x="-100" y="670" width="100" height="80" as="geometry" />
        </mxCell>
        <mxCell id="616xpa7f227RNor3UVf1-34" value="" style="endArrow=none;html=1;rounded=0;exitX=1;exitY=0.5;exitDx=0;exitDy=0;strokeWidth=3;entryX=0;entryY=0.5;entryDx=0;entryDy=0;" parent="WIyWlLk6GJQsqaUBKTNV-1" source="616xpa7f227RNor3UVf1-13" target="616xpa7f227RNor3UVf1-33" edge="1">
          <mxGeometry width="50" height="50" relative="1" as="geometry">
            <mxPoint x="-130" y="680" as="sourcePoint" />
            <mxPoint x="-100" y="710" as="targetPoint" />
          </mxGeometry>
        </mxCell>
        <mxCell id="616xpa7f227RNor3UVf1-41" style="edgeStyle=orthogonalEdgeStyle;rounded=0;orthogonalLoop=1;jettySize=auto;html=1;exitX=0.107;exitY=0.57;exitDx=0;exitDy=0;entryX=-0.003;entryY=0.581;entryDx=0;entryDy=0;endArrow=none;startFill=0;entryPerimeter=0;exitPerimeter=0;" parent="WIyWlLk6GJQsqaUBKTNV-1" source="616xpa7f227RNor3UVf1-143" target="616xpa7f227RNor3UVf1-5" edge="1">
          <mxGeometry relative="1" as="geometry">
            <Array as="points">
              <mxPoint x="31" y="560" />
              <mxPoint y="560" />
              <mxPoint y="690" />
              <mxPoint x="130" y="690" />
            </Array>
          </mxGeometry>
        </mxCell>
        <mxCell id="616xpa7f227RNor3UVf1-42" value="lidera" style="rhombus;whiteSpace=wrap;html=1;shadow=0;fontFamily=Helvetica;fontSize=12;align=center;strokeWidth=1;spacing=6;spacingTop=-4;" parent="WIyWlLk6GJQsqaUBKTNV-1" vertex="1">
          <mxGeometry x="480" y="740" width="100" height="80" as="geometry" />
        </mxCell>
        <mxCell id="616xpa7f227RNor3UVf1-43" value="" style="endArrow=none;html=1;rounded=0;exitX=1.003;exitY=0.84;exitDx=0;exitDy=0;entryX=0;entryY=0.5;entryDx=0;entryDy=0;exitPerimeter=0;" parent="WIyWlLk6GJQsqaUBKTNV-1" source="616xpa7f227RNor3UVf1-5" target="616xpa7f227RNor3UVf1-42" edge="1">
          <mxGeometry width="50" height="50" relative="1" as="geometry">
            <mxPoint x="260" y="720" as="sourcePoint" />
            <mxPoint x="350" y="620" as="targetPoint" />
            <Array as="points">
              <mxPoint x="430" y="730" />
              <mxPoint x="430" y="780" />
            </Array>
          </mxGeometry>
        </mxCell>
        <mxCell id="616xpa7f227RNor3UVf1-44" value="" style="endArrow=none;html=1;rounded=0;exitX=1;exitY=0.5;exitDx=0;exitDy=0;entryX=0;entryY=0.75;entryDx=0;entryDy=0;strokeWidth=3;" parent="WIyWlLk6GJQsqaUBKTNV-1" source="616xpa7f227RNor3UVf1-42" target="616xpa7f227RNor3UVf1-9" edge="1">
          <mxGeometry width="50" height="50" relative="1" as="geometry">
            <mxPoint x="414" y="650" as="sourcePoint" />
            <mxPoint x="484" y="750" as="targetPoint" />
            <Array as="points">
              <mxPoint x="620" y="780" />
              <mxPoint x="620" y="725" />
            </Array>
          </mxGeometry>
        </mxCell>
        <mxCell id="616xpa7f227RNor3UVf1-45" value="0:N" style="text;html=1;align=center;verticalAlign=middle;whiteSpace=wrap;rounded=0;" parent="WIyWlLk6GJQsqaUBKTNV-1" vertex="1">
          <mxGeometry x="180" y="410" width="60" height="30" as="geometry" />
        </mxCell>
        <mxCell id="616xpa7f227RNor3UVf1-46" value="1:1" style="text;html=1;align=center;verticalAlign=middle;whiteSpace=wrap;rounded=0;" parent="WIyWlLk6GJQsqaUBKTNV-1" vertex="1">
          <mxGeometry x="180" y="640" width="55" height="30" as="geometry" />
        </mxCell>
        <mxCell id="616xpa7f227RNor3UVf1-47" value="1:N" style="text;html=1;align=center;verticalAlign=middle;whiteSpace=wrap;rounded=0;" parent="WIyWlLk6GJQsqaUBKTNV-1" vertex="1">
          <mxGeometry x="225" y="500" width="60" height="30" as="geometry" />
        </mxCell>
        <mxCell id="616xpa7f227RNor3UVf1-48" value="0:N" style="text;html=1;align=center;verticalAlign=middle;whiteSpace=wrap;rounded=0;" parent="WIyWlLk6GJQsqaUBKTNV-1" vertex="1">
          <mxGeometry x="270" y="670" width="60" height="30" as="geometry" />
        </mxCell>
        <mxCell id="616xpa7f227RNor3UVf1-49" value="0:N" style="text;html=1;align=center;verticalAlign=middle;whiteSpace=wrap;rounded=0;" parent="WIyWlLk6GJQsqaUBKTNV-1" vertex="1">
          <mxGeometry x="270" y="730" width="60" height="30" as="geometry" />
        </mxCell>
        <mxCell id="616xpa7f227RNor3UVf1-50" value="0:N" style="text;html=1;align=center;verticalAlign=middle;whiteSpace=wrap;rounded=0;" parent="WIyWlLk6GJQsqaUBKTNV-1" vertex="1">
          <mxGeometry x="180" y="760" width="50" height="30" as="geometry" />
        </mxCell>
        <mxCell id="616xpa7f227RNor3UVf1-51" value="1:N" style="text;html=1;align=center;verticalAlign=middle;whiteSpace=wrap;rounded=0;" parent="WIyWlLk6GJQsqaUBKTNV-1" vertex="1">
          <mxGeometry x="180" y="1000" width="50" height="30" as="geometry" />
        </mxCell>
        <mxCell id="616xpa7f227RNor3UVf1-52" value="1:N" style="text;html=1;align=center;verticalAlign=middle;whiteSpace=wrap;rounded=0;" parent="WIyWlLk6GJQsqaUBKTNV-1" vertex="1">
          <mxGeometry x="75" y="705" width="60" height="30" as="geometry" />
        </mxCell>
        <mxCell id="616xpa7f227RNor3UVf1-53" value="1:1" style="text;html=1;align=center;verticalAlign=middle;whiteSpace=wrap;rounded=0;" parent="WIyWlLk6GJQsqaUBKTNV-1" vertex="1">
          <mxGeometry x="-190" y="705" width="60" height="30" as="geometry" />
        </mxCell>
        <mxCell id="616xpa7f227RNor3UVf1-54" value="1:N" style="text;html=1;align=center;verticalAlign=middle;whiteSpace=wrap;rounded=0;" parent="WIyWlLk6GJQsqaUBKTNV-1" vertex="1">
          <mxGeometry x="650" y="670" width="60" height="30" as="geometry" />
        </mxCell>
        <mxCell id="616xpa7f227RNor3UVf1-55" value="1:1" style="text;html=1;align=center;verticalAlign=middle;whiteSpace=wrap;rounded=0;" parent="WIyWlLk6GJQsqaUBKTNV-1" vertex="1">
          <mxGeometry x="650" y="725" width="60" height="30" as="geometry" />
        </mxCell>
        <mxCell id="616xpa7f227RNor3UVf1-56" value="1:N" style="text;html=1;align=center;verticalAlign=middle;whiteSpace=wrap;rounded=0;" parent="WIyWlLk6GJQsqaUBKTNV-1" vertex="1">
          <mxGeometry x="767" y="740" width="60" height="30" as="geometry" />
        </mxCell>
        <mxCell id="616xpa7f227RNor3UVf1-57" value="0:N" style="text;html=1;align=center;verticalAlign=middle;whiteSpace=wrap;rounded=0;" parent="WIyWlLk6GJQsqaUBKTNV-1" vertex="1">
          <mxGeometry x="767" y="915" width="60" height="30" as="geometry" />
        </mxCell>
        <mxCell id="616xpa7f227RNor3UVf1-58" value="1:1" style="text;html=1;align=center;verticalAlign=middle;whiteSpace=wrap;rounded=0;" parent="WIyWlLk6GJQsqaUBKTNV-1" vertex="1">
          <mxGeometry x="840" y="685" width="60" height="30" as="geometry" />
        </mxCell>
        <mxCell id="616xpa7f227RNor3UVf1-59" value="1:N" style="text;html=1;align=center;verticalAlign=middle;whiteSpace=wrap;rounded=0;" parent="WIyWlLk6GJQsqaUBKTNV-1" vertex="1">
          <mxGeometry x="1050" y="685" width="60" height="30" as="geometry" />
        </mxCell>
        <mxCell id="616xpa7f227RNor3UVf1-60" value="N:1" style="text;html=1;align=center;verticalAlign=middle;whiteSpace=wrap;rounded=0;" parent="WIyWlLk6GJQsqaUBKTNV-1" vertex="1">
          <mxGeometry x="950" y="645" width="60" height="30" as="geometry" />
        </mxCell>
        <mxCell id="616xpa7f227RNor3UVf1-61" value="N:N" style="text;html=1;align=center;verticalAlign=middle;whiteSpace=wrap;rounded=0;" parent="WIyWlLk6GJQsqaUBKTNV-1" vertex="1">
          <mxGeometry x="820" y="835" width="60" height="30" as="geometry" />
        </mxCell>
        <mxCell id="616xpa7f227RNor3UVf1-62" value="1:N" style="text;html=1;align=center;verticalAlign=middle;whiteSpace=wrap;rounded=0;" parent="WIyWlLk6GJQsqaUBKTNV-1" vertex="1">
          <mxGeometry x="500" y="710" width="60" height="30" as="geometry" />
        </mxCell>
        <mxCell id="616xpa7f227RNor3UVf1-63" value="N:N" style="text;html=1;align=center;verticalAlign=middle;whiteSpace=wrap;rounded=0;" parent="WIyWlLk6GJQsqaUBKTNV-1" vertex="1">
          <mxGeometry x="490" y="540" width="60" height="30" as="geometry" />
        </mxCell>
        <mxCell id="616xpa7f227RNor3UVf1-64" value="N:N" style="text;html=1;align=center;verticalAlign=middle;whiteSpace=wrap;rounded=0;" parent="WIyWlLk6GJQsqaUBKTNV-1" vertex="1">
          <mxGeometry x="230" y="905" width="60" height="30" as="geometry" />
        </mxCell>
        <mxCell id="616xpa7f227RNor3UVf1-65" value="N:1" style="text;html=1;align=center;verticalAlign=middle;whiteSpace=wrap;rounded=0;" parent="WIyWlLk6GJQsqaUBKTNV-1" vertex="1">
          <mxGeometry x="-80" y="645" width="60" height="30" as="geometry" />
        </mxCell>
        <mxCell id="616xpa7f227RNor3UVf1-118" style="rounded=0;orthogonalLoop=1;jettySize=auto;html=1;entryX=-0.008;entryY=0.65;entryDx=0;entryDy=0;endArrow=none;startFill=0;entryPerimeter=0;" parent="WIyWlLk6GJQsqaUBKTNV-1" source="616xpa7f227RNor3UVf1-67" target="616xpa7f227RNor3UVf1-13" edge="1">
          <mxGeometry relative="1" as="geometry" />
        </mxCell>
        <mxCell id="616xpa7f227RNor3UVf1-67" value="fecha" style="ellipse;whiteSpace=wrap;html=1;" parent="WIyWlLk6GJQsqaUBKTNV-1" vertex="1">
          <mxGeometry x="-460" y="735" width="110" height="40" as="geometry" />
        </mxCell>
        <mxCell id="616xpa7f227RNor3UVf1-117" style="rounded=0;orthogonalLoop=1;jettySize=auto;html=1;entryX=0.5;entryY=1;entryDx=0;entryDy=0;endArrow=none;startFill=0;" parent="WIyWlLk6GJQsqaUBKTNV-1" source="616xpa7f227RNor3UVf1-68" target="616xpa7f227RNor3UVf1-13" edge="1">
          <mxGeometry relative="1" as="geometry" />
        </mxCell>
        <mxCell id="616xpa7f227RNor3UVf1-68" value="puntaje" style="ellipse;whiteSpace=wrap;html=1;" parent="WIyWlLk6GJQsqaUBKTNV-1" vertex="1">
          <mxGeometry x="-340" y="790" width="110" height="40" as="geometry" />
        </mxCell>
        <mxCell id="616xpa7f227RNor3UVf1-120" style="rounded=0;orthogonalLoop=1;jettySize=auto;html=1;entryX=0.004;entryY=0.161;entryDx=0;entryDy=0;endArrow=none;startFill=0;entryPerimeter=0;" parent="WIyWlLk6GJQsqaUBKTNV-1" source="616xpa7f227RNor3UVf1-69" target="616xpa7f227RNor3UVf1-13" edge="1">
          <mxGeometry relative="1" as="geometry" />
        </mxCell>
        <mxCell id="616xpa7f227RNor3UVf1-69" value="&lt;u&gt;id&lt;/u&gt;" style="ellipse;whiteSpace=wrap;html=1;" parent="WIyWlLk6GJQsqaUBKTNV-1" vertex="1">
          <mxGeometry x="-470" y="635" width="110" height="40" as="geometry" />
        </mxCell>
        <mxCell id="616xpa7f227RNor3UVf1-121" style="rounded=0;orthogonalLoop=1;jettySize=auto;html=1;entryX=0.5;entryY=0;entryDx=0;entryDy=0;endArrow=none;startFill=0;" parent="WIyWlLk6GJQsqaUBKTNV-1" source="616xpa7f227RNor3UVf1-70" target="616xpa7f227RNor3UVf1-13" edge="1">
          <mxGeometry relative="1" as="geometry" />
        </mxCell>
        <mxCell id="616xpa7f227RNor3UVf1-70" value="comentarios" style="ellipse;whiteSpace=wrap;html=1;" parent="WIyWlLk6GJQsqaUBKTNV-1" vertex="1">
          <mxGeometry x="-358" y="580" width="110" height="40" as="geometry" />
        </mxCell>
        <mxCell id="616xpa7f227RNor3UVf1-73" value="nombre" style="ellipse;whiteSpace=wrap;html=1;" parent="WIyWlLk6GJQsqaUBKTNV-1" vertex="1">
          <mxGeometry x="230" y="280" width="110" height="40" as="geometry" />
        </mxCell>
        <mxCell id="616xpa7f227RNor3UVf1-133" style="rounded=0;orthogonalLoop=1;jettySize=auto;html=1;entryX=1.002;entryY=0.339;entryDx=0;entryDy=0;endArrow=none;startFill=0;entryPerimeter=0;" parent="WIyWlLk6GJQsqaUBKTNV-1" source="616xpa7f227RNor3UVf1-74" target="616xpa7f227RNor3UVf1-10" edge="1">
          <mxGeometry relative="1" as="geometry" />
        </mxCell>
        <mxCell id="616xpa7f227RNor3UVf1-74" value="nombre" style="ellipse;whiteSpace=wrap;html=1;" parent="WIyWlLk6GJQsqaUBKTNV-1" vertex="1">
          <mxGeometry x="1270" y="635" width="110" height="40" as="geometry" />
        </mxCell>
        <mxCell id="616xpa7f227RNor3UVf1-75" value="&lt;u&gt;id&lt;/u&gt;" style="ellipse;whiteSpace=wrap;html=1;" parent="WIyWlLk6GJQsqaUBKTNV-1" vertex="1">
          <mxGeometry x="60" y="280" width="110" height="40" as="geometry" />
        </mxCell>
        <mxCell id="616xpa7f227RNor3UVf1-134" style="rounded=0;orthogonalLoop=1;jettySize=auto;html=1;entryX=0.994;entryY=0.781;entryDx=0;entryDy=0;endArrow=none;startFill=0;entryPerimeter=0;" parent="WIyWlLk6GJQsqaUBKTNV-1" source="616xpa7f227RNor3UVf1-76" target="616xpa7f227RNor3UVf1-10" edge="1">
          <mxGeometry relative="1" as="geometry" />
        </mxCell>
        <mxCell id="616xpa7f227RNor3UVf1-76" value="correo" style="ellipse;whiteSpace=wrap;html=1;" parent="WIyWlLk6GJQsqaUBKTNV-1" vertex="1">
          <mxGeometry x="1280" y="725" width="110" height="40" as="geometry" />
        </mxCell>
        <mxCell id="616xpa7f227RNor3UVf1-132" style="rounded=0;orthogonalLoop=1;jettySize=auto;html=1;entryX=0.5;entryY=0;entryDx=0;entryDy=0;endArrow=none;startFill=0;" parent="WIyWlLk6GJQsqaUBKTNV-1" source="616xpa7f227RNor3UVf1-77" target="616xpa7f227RNor3UVf1-10" edge="1">
          <mxGeometry relative="1" as="geometry" />
        </mxCell>
        <mxCell id="616xpa7f227RNor3UVf1-77" value="&lt;u&gt;id&lt;/u&gt;" style="ellipse;whiteSpace=wrap;html=1;" parent="WIyWlLk6GJQsqaUBKTNV-1" vertex="1">
          <mxGeometry x="1150" y="585" width="110" height="40" as="geometry" />
        </mxCell>
        <mxCell id="616xpa7f227RNor3UVf1-135" style="rounded=0;orthogonalLoop=1;jettySize=auto;html=1;entryX=0.75;entryY=1;entryDx=0;entryDy=0;endArrow=none;startFill=0;" parent="WIyWlLk6GJQsqaUBKTNV-1" source="616xpa7f227RNor3UVf1-78" target="616xpa7f227RNor3UVf1-10" edge="1">
          <mxGeometry relative="1" as="geometry" />
        </mxCell>
        <mxCell id="616xpa7f227RNor3UVf1-78" value="rubro" style="ellipse;whiteSpace=wrap;html=1;" parent="WIyWlLk6GJQsqaUBKTNV-1" vertex="1">
          <mxGeometry x="1200" y="800" width="110" height="40" as="geometry" />
        </mxCell>
        <mxCell id="616xpa7f227RNor3UVf1-124" style="rounded=0;orthogonalLoop=1;jettySize=auto;html=1;entryX=0;entryY=0.75;entryDx=0;entryDy=0;endArrow=none;startFill=0;" parent="WIyWlLk6GJQsqaUBKTNV-1" source="616xpa7f227RNor3UVf1-79" target="616xpa7f227RNor3UVf1-11" edge="1">
          <mxGeometry relative="1" as="geometry" />
        </mxCell>
        <mxCell id="616xpa7f227RNor3UVf1-79" value="&lt;u&gt;id&lt;/u&gt;" style="ellipse;whiteSpace=wrap;html=1;" parent="WIyWlLk6GJQsqaUBKTNV-1" vertex="1">
          <mxGeometry x="560" y="1005" width="110" height="40" as="geometry" />
        </mxCell>
        <mxCell id="616xpa7f227RNor3UVf1-125" style="rounded=0;orthogonalLoop=1;jettySize=auto;html=1;entryX=0.5;entryY=1;entryDx=0;entryDy=0;endArrow=none;startFill=0;" parent="WIyWlLk6GJQsqaUBKTNV-1" source="616xpa7f227RNor3UVf1-80" target="616xpa7f227RNor3UVf1-11" edge="1">
          <mxGeometry relative="1" as="geometry" />
        </mxCell>
        <mxCell id="616xpa7f227RNor3UVf1-80" value="nombre" style="ellipse;whiteSpace=wrap;html=1;" parent="WIyWlLk6GJQsqaUBKTNV-1" vertex="1">
          <mxGeometry x="725" y="1055" width="110" height="40" as="geometry" />
        </mxCell>
        <mxCell id="616xpa7f227RNor3UVf1-126" style="rounded=0;orthogonalLoop=1;jettySize=auto;html=1;entryX=1;entryY=0.5;entryDx=0;entryDy=0;endArrow=none;startFill=0;" parent="WIyWlLk6GJQsqaUBKTNV-1" source="616xpa7f227RNor3UVf1-81" target="616xpa7f227RNor3UVf1-11" edge="1">
          <mxGeometry relative="1" as="geometry" />
        </mxCell>
        <mxCell id="616xpa7f227RNor3UVf1-81" value="version" style="ellipse;whiteSpace=wrap;html=1;" parent="WIyWlLk6GJQsqaUBKTNV-1" vertex="1">
          <mxGeometry x="880" y="1000" width="110" height="40" as="geometry" />
        </mxCell>
        <mxCell id="616xpa7f227RNor3UVf1-113" style="rounded=0;orthogonalLoop=1;jettySize=auto;html=1;entryX=0;entryY=0.5;entryDx=0;entryDy=0;endArrow=none;startFill=0;" parent="WIyWlLk6GJQsqaUBKTNV-1" source="616xpa7f227RNor3UVf1-82" target="616xpa7f227RNor3UVf1-12" edge="1">
          <mxGeometry relative="1" as="geometry" />
        </mxCell>
        <mxCell id="616xpa7f227RNor3UVf1-82" value="&lt;u&gt;id&lt;/u&gt;" style="ellipse;whiteSpace=wrap;html=1;" parent="WIyWlLk6GJQsqaUBKTNV-1" vertex="1">
          <mxGeometry x="-40" y="1085" width="110" height="40" as="geometry" />
        </mxCell>
        <mxCell id="616xpa7f227RNor3UVf1-114" style="rounded=0;orthogonalLoop=1;jettySize=auto;html=1;entryX=0.25;entryY=1;entryDx=0;entryDy=0;endArrow=none;startFill=0;" parent="WIyWlLk6GJQsqaUBKTNV-1" source="616xpa7f227RNor3UVf1-83" target="616xpa7f227RNor3UVf1-12" edge="1">
          <mxGeometry relative="1" as="geometry" />
        </mxCell>
        <mxCell id="616xpa7f227RNor3UVf1-83" value="tema" style="ellipse;whiteSpace=wrap;html=1;" parent="WIyWlLk6GJQsqaUBKTNV-1" vertex="1">
          <mxGeometry x="50" y="1155" width="110" height="40" as="geometry" />
        </mxCell>
        <mxCell id="616xpa7f227RNor3UVf1-115" style="rounded=0;orthogonalLoop=1;jettySize=auto;html=1;entryX=0.75;entryY=1;entryDx=0;entryDy=0;endArrow=none;startFill=0;" parent="WIyWlLk6GJQsqaUBKTNV-1" source="616xpa7f227RNor3UVf1-84" target="616xpa7f227RNor3UVf1-12" edge="1">
          <mxGeometry relative="1" as="geometry" />
        </mxCell>
        <mxCell id="616xpa7f227RNor3UVf1-84" value="fecha" style="ellipse;whiteSpace=wrap;html=1;" parent="WIyWlLk6GJQsqaUBKTNV-1" vertex="1">
          <mxGeometry x="200" y="1155" width="110" height="40" as="geometry" />
        </mxCell>
        <mxCell id="616xpa7f227RNor3UVf1-116" style="rounded=0;orthogonalLoop=1;jettySize=auto;html=1;entryX=1;entryY=0.5;entryDx=0;entryDy=0;endArrow=none;startFill=0;" parent="WIyWlLk6GJQsqaUBKTNV-1" source="616xpa7f227RNor3UVf1-85" target="616xpa7f227RNor3UVf1-12" edge="1">
          <mxGeometry relative="1" as="geometry" />
        </mxCell>
        <mxCell id="616xpa7f227RNor3UVf1-85" value="duracion_horas" style="ellipse;whiteSpace=wrap;html=1;" parent="WIyWlLk6GJQsqaUBKTNV-1" vertex="1">
          <mxGeometry x="320" y="1105" width="110" height="40" as="geometry" />
        </mxCell>
        <mxCell id="616xpa7f227RNor3UVf1-128" style="rounded=0;orthogonalLoop=1;jettySize=auto;html=1;endArrow=none;startFill=0;" parent="WIyWlLk6GJQsqaUBKTNV-1" source="616xpa7f227RNor3UVf1-87" target="616xpa7f227RNor3UVf1-9" edge="1">
          <mxGeometry relative="1" as="geometry" />
        </mxCell>
        <mxCell id="616xpa7f227RNor3UVf1-87" value="nombre" style="ellipse;whiteSpace=wrap;html=1;" parent="WIyWlLk6GJQsqaUBKTNV-1" vertex="1">
          <mxGeometry x="750" y="555" width="110" height="40" as="geometry" />
        </mxCell>
        <mxCell id="616xpa7f227RNor3UVf1-129" style="rounded=0;orthogonalLoop=1;jettySize=auto;html=1;entryX=0.25;entryY=0;entryDx=0;entryDy=0;endArrow=none;startFill=0;" parent="WIyWlLk6GJQsqaUBKTNV-1" source="616xpa7f227RNor3UVf1-88" target="616xpa7f227RNor3UVf1-9" edge="1">
          <mxGeometry relative="1" as="geometry" />
        </mxCell>
        <mxCell id="616xpa7f227RNor3UVf1-88" value="&lt;u&gt;codigo_proyecto&lt;/u&gt;" style="ellipse;whiteSpace=wrap;html=1;" parent="WIyWlLk6GJQsqaUBKTNV-1" vertex="1">
          <mxGeometry x="650" y="585" width="110" height="40" as="geometry" />
        </mxCell>
        <mxCell id="616xpa7f227RNor3UVf1-131" style="rounded=0;orthogonalLoop=1;jettySize=auto;html=1;entryX=0.908;entryY=0.017;entryDx=0;entryDy=0;endArrow=none;startFill=0;entryPerimeter=0;" parent="WIyWlLk6GJQsqaUBKTNV-1" source="616xpa7f227RNor3UVf1-89" target="616xpa7f227RNor3UVf1-9" edge="1">
          <mxGeometry relative="1" as="geometry" />
        </mxCell>
        <mxCell id="616xpa7f227RNor3UVf1-89" value="area" style="ellipse;whiteSpace=wrap;html=1;" parent="WIyWlLk6GJQsqaUBKTNV-1" vertex="1">
          <mxGeometry x="850" y="590" width="110" height="40" as="geometry" />
        </mxCell>
        <mxCell id="616xpa7f227RNor3UVf1-110" style="rounded=0;orthogonalLoop=1;jettySize=auto;html=1;endArrow=none;startFill=0;exitX=0.985;exitY=0.317;exitDx=0;exitDy=0;exitPerimeter=0;" parent="WIyWlLk6GJQsqaUBKTNV-1" source="616xpa7f227RNor3UVf1-94" edge="1">
          <mxGeometry relative="1" as="geometry">
            <mxPoint x="130" y="720" as="targetPoint" />
          </mxGeometry>
        </mxCell>
        <mxCell id="616xpa7f227RNor3UVf1-94" value="&lt;u&gt;id&lt;/u&gt;" style="ellipse;whiteSpace=wrap;html=1;" parent="WIyWlLk6GJQsqaUBKTNV-1" vertex="1">
          <mxGeometry x="-40" y="770" width="110" height="40" as="geometry" />
        </mxCell>
        <mxCell id="616xpa7f227RNor3UVf1-106" style="rounded=0;orthogonalLoop=1;jettySize=auto;html=1;endArrow=none;startFill=0;" parent="WIyWlLk6GJQsqaUBKTNV-1" source="616xpa7f227RNor3UVf1-95" target="616xpa7f227RNor3UVf1-5" edge="1">
          <mxGeometry relative="1" as="geometry" />
        </mxCell>
        <mxCell id="616xpa7f227RNor3UVf1-95" value="nombre" style="ellipse;whiteSpace=wrap;html=1;" parent="WIyWlLk6GJQsqaUBKTNV-1" vertex="1">
          <mxGeometry x="210" y="830" width="110" height="40" as="geometry" />
        </mxCell>
        <mxCell id="616xpa7f227RNor3UVf1-105" style="rounded=0;orthogonalLoop=1;jettySize=auto;html=1;entryX=1;entryY=0;entryDx=0;entryDy=0;endArrow=none;startFill=0;" parent="WIyWlLk6GJQsqaUBKTNV-1" source="616xpa7f227RNor3UVf1-96" target="616xpa7f227RNor3UVf1-5" edge="1">
          <mxGeometry relative="1" as="geometry" />
        </mxCell>
        <mxCell id="616xpa7f227RNor3UVf1-96" value="puesto" style="ellipse;whiteSpace=wrap;html=1;" parent="WIyWlLk6GJQsqaUBKTNV-1" vertex="1">
          <mxGeometry x="300" y="620" width="110" height="40" as="geometry" />
        </mxCell>
        <mxCell id="616xpa7f227RNor3UVf1-97" value="fecha_ingreso" style="ellipse;whiteSpace=wrap;html=1;" parent="WIyWlLk6GJQsqaUBKTNV-1" vertex="1">
          <mxGeometry x="320" y="790" width="110" height="40" as="geometry" />
        </mxCell>
        <mxCell id="616xpa7f227RNor3UVf1-104" style="rounded=0;orthogonalLoop=1;jettySize=auto;html=1;entryX=0.75;entryY=0;entryDx=0;entryDy=0;endArrow=none;startFill=0;" parent="WIyWlLk6GJQsqaUBKTNV-1" source="616xpa7f227RNor3UVf1-98" target="616xpa7f227RNor3UVf1-5" edge="1">
          <mxGeometry relative="1" as="geometry" />
        </mxCell>
        <mxCell id="616xpa7f227RNor3UVf1-98" value="apellido" style="ellipse;whiteSpace=wrap;html=1;" parent="WIyWlLk6GJQsqaUBKTNV-1" vertex="1">
          <mxGeometry x="230" y="570" width="110" height="40" as="geometry" />
        </mxCell>
        <mxCell id="616xpa7f227RNor3UVf1-109" style="rounded=0;orthogonalLoop=1;jettySize=auto;html=1;entryX=0.25;entryY=1;entryDx=0;entryDy=0;endArrow=none;startFill=0;" parent="WIyWlLk6GJQsqaUBKTNV-1" source="616xpa7f227RNor3UVf1-99" target="616xpa7f227RNor3UVf1-5" edge="1">
          <mxGeometry relative="1" as="geometry" />
        </mxCell>
        <mxCell id="616xpa7f227RNor3UVf1-99" value="correo" style="ellipse;whiteSpace=wrap;html=1;" parent="WIyWlLk6GJQsqaUBKTNV-1" vertex="1">
          <mxGeometry x="70" y="800" width="110" height="40" as="geometry" />
        </mxCell>
        <mxCell id="616xpa7f227RNor3UVf1-107" style="rounded=0;orthogonalLoop=1;jettySize=auto;html=1;entryX=0.948;entryY=1.002;entryDx=0;entryDy=0;entryPerimeter=0;endArrow=none;startFill=0;" parent="WIyWlLk6GJQsqaUBKTNV-1" source="616xpa7f227RNor3UVf1-97" target="616xpa7f227RNor3UVf1-5" edge="1">
          <mxGeometry relative="1" as="geometry" />
        </mxCell>
        <mxCell id="616xpa7f227RNor3UVf1-137" style="rounded=0;orthogonalLoop=1;jettySize=auto;html=1;entryX=0.636;entryY=1;entryDx=0;entryDy=0;entryPerimeter=0;exitX=0.417;exitY=0;exitDx=0;exitDy=0;exitPerimeter=0;endArrow=none;startFill=0;" parent="WIyWlLk6GJQsqaUBKTNV-1" source="616xpa7f227RNor3UVf1-8" target="616xpa7f227RNor3UVf1-75" edge="1">
          <mxGeometry relative="1" as="geometry" />
        </mxCell>
        <mxCell id="616xpa7f227RNor3UVf1-139" value="1:N" style="text;html=1;align=center;verticalAlign=middle;whiteSpace=wrap;rounded=0;" parent="WIyWlLk6GJQsqaUBKTNV-1" vertex="1">
          <mxGeometry x="90" y="560" width="60" height="30" as="geometry" />
        </mxCell>
        <mxCell id="616xpa7f227RNor3UVf1-140" value="&lt;font style=&quot;font-size: 11px;&quot;&gt;Rol: mentor&lt;/font&gt;" style="text;html=1;align=center;verticalAlign=middle;whiteSpace=wrap;rounded=0;rotation=-90;" parent="WIyWlLk6GJQsqaUBKTNV-1" vertex="1">
          <mxGeometry x="90" y="615" width="70" height="30" as="geometry" />
        </mxCell>
        <mxCell id="616xpa7f227RNor3UVf1-141" value="&lt;font style=&quot;font-size: 11px;&quot;&gt;Rol: mentorado&lt;/font&gt;" style="text;html=1;align=center;verticalAlign=middle;whiteSpace=wrap;rounded=0;" parent="WIyWlLk6GJQsqaUBKTNV-1" vertex="1">
          <mxGeometry y="665" width="100" height="30" as="geometry" />
        </mxCell>
        <mxCell id="616xpa7f227RNor3UVf1-144" value="" style="edgeStyle=orthogonalEdgeStyle;rounded=0;orthogonalLoop=1;jettySize=auto;html=1;exitX=0.09;exitY=-0.012;exitDx=0;exitDy=0;endArrow=none;startFill=0;exitPerimeter=0;strokeWidth=3;entryX=0.069;entryY=0.586;entryDx=0;entryDy=0;entryPerimeter=0;" parent="WIyWlLk6GJQsqaUBKTNV-1" source="616xpa7f227RNor3UVf1-5" target="616xpa7f227RNor3UVf1-143" edge="1">
          <mxGeometry relative="1" as="geometry">
            <mxPoint x="141" y="679" as="sourcePoint" />
            <mxPoint x="20" y="560" as="targetPoint" />
            <Array as="points">
              <mxPoint x="141" y="676" />
              <mxPoint x="140" y="676" />
              <mxPoint x="140" y="560" />
            </Array>
          </mxGeometry>
        </mxCell>
        <mxCell id="616xpa7f227RNor3UVf1-143" value="guia" style="rhombus;whiteSpace=wrap;html=1;shadow=0;fontFamily=Helvetica;fontSize=12;align=center;strokeWidth=1;spacing=6;spacingTop=-4;" parent="WIyWlLk6GJQsqaUBKTNV-1" vertex="1">
          <mxGeometry x="20" y="510" width="100" height="85" as="geometry" />
        </mxCell>
        <mxCell id="616xpa7f227RNor3UVf1-146" value="N:N" style="text;html=1;align=center;verticalAlign=middle;whiteSpace=wrap;rounded=0;" parent="WIyWlLk6GJQsqaUBKTNV-1" vertex="1">
          <mxGeometry x="-20" y="510" width="60" height="30" as="geometry" />
        </mxCell>
        <mxCell id="616xpa7f227RNor3UVf1-147" value="0:N" style="text;html=1;align=center;verticalAlign=middle;whiteSpace=wrap;rounded=0;" parent="WIyWlLk6GJQsqaUBKTNV-1" vertex="1">
          <mxGeometry y="640" width="30" height="30" as="geometry" />
        </mxCell>
        <mxCell id="mptwHvH5zVuD_mkUCuNN-3" value="&lt;font style=&quot;font-size: 14px;&quot;&gt;Diego Eduardo Castro Quintanilla&amp;nbsp;&lt;/font&gt;&lt;div style=&quot;font-size: 14px;&quot;&gt;&lt;font style=&quot;font-size: 14px;&quot;&gt;00117322&lt;/font&gt;&lt;/div&gt;" style="text;html=1;align=center;verticalAlign=middle;whiteSpace=wrap;rounded=0;" vertex="1" parent="WIyWlLk6GJQsqaUBKTNV-1">
          <mxGeometry x="410" y="430" width="240" height="30" as="geometry" />
        </mxCell>
      </root>
    </mxGraphModel>
  </diagram>
</mxfile>
